<?xml version="1.0" encoding="UTF-8"?>
<svg version="1.1" viewBox="0 0 600 976" xmlns="http://www.w3.org/2000/svg">
 <g fill="#020000">
  <path d="m91.859 622.99q8.7871-20.643 30.202-19.788 21.263 0.72187 48.918 22.207 49.111 37.517 149.23 174.02-93.689-4.641-163.5-57.714-78.803-65.101-65.038-118.18m234.48 67.24q7.2045-15.055 26.208-6.4157 18.817 10.673 34.218 37.086-25.263 2.619-47.847-7.5411-16.578-8.5714-12.748-22.549m-240.85-70.857q-11.79 35.003 21.187 80.642 34.757 46.425 93.638 75.738 59.568 28.366 125.85 30.18l41.742 50.675q0.2807-0.49707 0.22134-0.97149l-33.052-49.466q58.515-3.3394 68.855-30.329 7.998-19.834-5.5803-49.895 22.425-6.7197 19.341-25.772-5.9033-24.258-34.047-38.614-17.921-8.3329-41.621-7.422-29.88 1.9634-57.32 12.693 0.70366 0.8471 2.4265 0.61774 29.006-5.6256 45.389-6.2552 21.743-0.81895 34.91 2.3064 31.782 8.834 42.313 34.314 5.1472 17.475-14.545 21.23-18.658-30.711-38.763-41.966-20.276-10.247-33.34 4.2186-10.662 16.153 2.9074 31.068 22.132 18.298 64.808 15.157 7.955 15.445 8.8925 29.94 3.0567 39.812-69.331 41.153-109.82-148.41-157.73-182.41-29.446-21.804-52.407-21.331-24.702 0.78662-34.501 23.894"/>
 </g>
 <path d="m147.72 240.13q-1.7804 0.67792-0.98592 1.1374l30.361 52.013q17.709 26.654 35.988 49.779 50.56 62.891 98.992 105.4 21.449 18.186 31.414 18.684 4.6558 0.25715 7.9024-1.1212l14.686-10.533q4.7031-2.5631 11.21-3.858 17.337-3.1144 32.493 2.877 20.314 7.6061 45.64 47.843-34.454-12.274-44.78-13.583-15.075-2.6596-24.647 1.2834-5.2931 1.9789-10.952 8.0395-22.992 27.804-55.113 62.604-0.70511 0.59207-0.05384 0.91557 2.5109-0.68204 29.895-26.349 20.309-19.456 31.467-34.835 3.1431-3.1444 7.237-4.8384 15.201-7.6343 72.692 15.531 4.481-0.60157 2.6148-7.0402-28.086-45.616-50.289-54.606-17.697-7.3109-36.69-3.9251-6.8701 1.2522-12.91 4.1773-3.7046 1.7833-13.68 10.136-3.1018 1.5607-5.4028 1.2658-8.7586-0.46746-26.667-15.493-39.947-34.056-89.043-92.406-16.184-19.562-30.28-39.173l-50.959-73.777"/>
 <path d="m139.79 248.43q-0.34805-0.5043-1.4314-0.4579l0.04006 1.4797q-8.793 21.728-15.202 43.795-6.8384 23.712-8.8317 43.871-2.8937 40.094 12.684 75.761 21.599 49.345 61.87 89.048 39.044 35.865 71.816 34.166-32.842-6.4312-62.176-36.749-43.11-43.609-62.968-90.019-13.46-31.125-12.349-64.296 0.52793-21.271 3.9292-40.307 2.9796-18.068 12.644-56.127"/>
 <path d="m311.53 634.75l-0.00666 0.0072m-56.558-94.278q-7.03 8.1986-9.0377 14.717-0.72615 2.4862-0.46089 4.637l1.8386 7.29q0.09724 1.207-0.73222 2.4757-0.85028 1.3864-3.9609 3.713-16.689 10.978-17.373 12.162-3.7797 3.3862-4.1649 7.0323-0.24812 2.1968 0.80225 4.5116 0.31428 1.1112 3.9116 5.6773l0.37076 0.83884q-0.09655 0.63122-0.64334 1.4971l-3.5081 5.1698q-0.80936 1.5613-0.90682 2.9685-0.13511 1.4201 0.51511 3.1195l2.9745 5.1079q0.57257 1.1652 0.58163 2.0715 0.62905 0.41474-3.4109 10.693-0.41878 1.449-0.21186 2.9449 0.99382 3.7428 4.9973 3.7584-4.4428 4.7554-3.432 7.6244 0.88559 3.3658 6.6045 4.2468l-2.4198 3.9791q-0.49942 1.4879 0.61821 2.8938 0.81214 1.1039 2.9483 1.4556l3.9717-1.3678 0.43312 1.0261q1.0682 5.8325 1.3174 5.6475 0.61012 1.3903 2.8571 1.6292 1.9865 0.40835 3.4514-1.9136l3.955-13.357q2.2118 9.5256 2.6746 10.357 0.94225 2.5078 2.3063 2.9843 2.6266 1.156 4.6639-1.0574 0.58826-0.7323 1.161-2.1899l2.6305-7.5346q3.819 6.1621 4.5611 6.5544 1.4817 1.4898 3.745 1.1327 2.2785-0.484 3.0924-3.2389 0.33378 0.21857 1.593-11.929 5.099 6.9692 6.3355 7.7173 2.4622 1.9638 4.6539 1.2523 3.9804-0.5601 5.143-12.511 3.9419 6.9901 7.5244 5.6232 1.4687-0.3424 2.5066-2.3856 0.13644 0.5596 1.7846-7.5902 0.45713-1.5829 1.078-2.187 0.13996-0.49334 7.9133 1.762 1.6775 0.28037 2.6036 0.11185 3.3009-0.57335 3.887-3.939 0.60498-3.4112-3.855-13.54-7.7304-17.086-16.088-31.175-0.24405-0.1715 0.29742-0.50095l-1.4111 0.63318q1.193-0.39533 0.93563-0.06848l10.455 27.564q4.3647 11.767 4.5183 15.496-9.0217-3.6834-11.699-2.0969-3.8391 1.3247-5.2944 8.6272-3.9207-6.5821-7.9856-4.7119-1.6307 0.72156-2.4776 3.1987-0.31685 0.20017-1.9412 9.9814-5.5033-7.4892-6.6233-8.0332-2.4225-1.9376-4.8511-1.0212-3.6611 0.70936-4.4064 12.893-3.474-5.6935-6.874-5.1814-3.6186 0.31374-5.6496 6.7267-2.3371-12.836-7.072-11.753-3.9402-0.48797-7.1801 12.558-1.2695-1.3858-3.1914-1.8238 0.86667-2.8355-1.2159-5.0358-1.2378-1.2849-4.9345-2.0474l5.539-6.3101q1.036-1.4026 0.97312-2.8304-1.0351-5.1238-8.3431-2.8164 3.4976-8.1264 3.1357-11.256-0.11282-2.0208-0.8774-3.7738l-3.1936-5.7698 4.1296-6.4126q1.0044-2.1541 0.93628-3.7245 0.01906-1.4371-0.73651-3.0424l-3.8178-5.4588q-0.71765-1.0974-0.52106-2.0279 0.17427-1.1192 3.2609-4.0143l15.075-12.033q3.4546-3.0356 4.5219-5.1578 1.1914-2.0855 0.9942-4.6755l-0.47375-2.1429-2.0432-5.313q-0.40109-1.7021-0.07788-3.4418 0.601-4.6252 6.8254-15.317 0.07497-0.11957-0.47829-0.34794"/>
 <path d="m253.9 366.89q-0.69648 1.1505-0.5566 1.8866 0.14981 1.6281 1.3933 5.6792 4.5338 13.934 8.7886 23.687 0.37257-0.13338 0.2254-0.22582-0.25857-0.30051-0.29638-0.53308 0.30465 0.5751-5.085-19.637l-1.3536-5.7295q4.911 7.0964 6.2288 7.9979 1.8506 1.4756 3.4622 0.25694 1.2822-1.3179 0.96301-3.5895-0.01739-2.0285-1.7517-12.138 5.4153 11.035 20.128 47.27l7.769 17.331 1.4487 3.0753q0.418 0.40051 1.4088-0.15595 0.23693 0.03485-7.5438-21.312l-5.3473-13.122q-13.899-33.792-17.254-38.836-0.81275-1.5458-2.3212-1.4409-1.4305 0.27598-2.077 2.0147-0.09799 0.9587 0.21396 3.338 2.2318 13.602 2.011 13.765-0.54413-0.47165-5.7278-7.8352l-1.4712-1.7567q-1.4272-1.4687-3.2426-0.0072"/>
</svg>
